<svg width="31" height="31" viewBox="0 0 31 31" fill="none" xmlns="http://www.w3.org/2000/svg">
<path d="M12.4686 26.9509C12.4684 26.7595 12.3834 26.578 12.2365 26.4552C12.0885 26.3342 11.8953 26.2831 11.7068 26.3152C9.65195 26.6961 7.04591 26.7012 6.28907 24.5757C5.82354 23.4397 5.0775 22.4402 4.12074 21.6708C3.9227 21.5692 3.74421 21.4335 3.59347 21.2697C3.54255 20.9585 3.27426 20.7298 2.95899 20.7285H2.95639C2.60076 20.7285 2.31198 21.0161 2.31056 21.3718C2.30677 22.1085 3.22885 22.6597 3.50131 22.8047C4.18594 23.4197 4.72494 24.1794 5.0794 25.0287C5.52971 26.2938 6.90211 28.2515 11.1795 27.7053C11.1833 28.1758 11.1896 28.4193 11.1946 28.6047L11.2009 28.9856C11.2009 29.3423 11.4901 29.6315 11.8468 29.6315C12.2034 29.6315 12.4926 29.3423 12.4926 28.9856L12.4863 28.5693C12.4787 28.3095 12.4686 27.9349 12.4686 26.9509ZM27.0226 6.74721C26.9835 6.69801 26.9419 6.6463 26.899 6.59458C26.9857 6.32157 27.0539 6.04304 27.1033 5.76088C27.3033 4.37469 27.1259 2.96019 26.5899 1.66624C26.5193 1.48846 26.3732 1.35121 26.1913 1.29168C26.0084 1.23114 24.3396 0.782081 20.8569 3.07656C17.9391 2.33486 14.882 2.33486 11.9641 3.07656C8.48264 0.808571 6.8239 1.23366 6.63974 1.2879C6.45439 1.3464 6.30492 1.48476 6.23231 1.66506C5.68652 2.97856 5.51032 4.41623 5.72271 5.82261C5.77214 6.08048 5.83489 6.3356 5.91065 6.58701C5.86524 6.64259 5.82236 6.69801 5.78199 6.75225C4.68852 8.13955 4.1067 9.86143 4.13461 11.6276C4.13146 12.0282 4.14999 12.4286 4.19011 12.8272C4.62908 18.8516 8.51543 20.528 11.8721 21.1007C11.6535 21.4926 11.49 21.9128 11.3864 22.3495C11.3014 22.6956 11.5131 23.0453 11.8594 23.1303C12.2056 23.2152 12.5552 23.0035 12.6402 22.6572C12.7597 22.0635 13.0597 21.5212 13.4991 21.1045C13.7679 20.8694 13.7952 20.4609 13.5601 20.1922C13.4542 20.0711 13.307 19.9939 13.1472 19.9755C9.58635 19.5719 5.89047 18.395 5.47666 12.7099C5.44015 12.3503 5.42336 11.989 5.42628 11.6276C5.40192 10.1451 5.89024 8.69961 6.80877 7.53558C6.90589 7.40439 7.01437 7.28456 7.12159 7.16599C7.28534 6.9853 7.33366 6.72782 7.24647 6.49998C7.13626 6.20867 7.05221 5.90815 6.99545 5.60186C6.84077 4.5635 6.94389 3.50306 7.29566 2.51397C8.8296 2.72754 10.2782 3.34823 11.491 4.31146C11.6475 4.4171 11.8428 4.44848 12.0245 4.39723C14.8978 3.61769 17.9268 3.61769 20.8001 4.39723C20.9829 4.44832 21.1789 4.41647 21.3361 4.3102C22.5403 3.33703 23.9884 2.71264 25.5227 2.50514C25.8704 3.47933 25.9756 4.52361 25.8292 5.54762C25.7722 5.87306 25.683 6.19212 25.5631 6.49998C25.4759 6.72782 25.5241 6.98522 25.688 7.16599C25.8015 7.29087 25.915 7.43088 26.0146 7.55576C26.9353 8.7108 27.4243 10.1508 27.3972 11.6276C27.4002 11.997 27.3821 12.3664 27.343 12.7339C26.933 18.3925 23.2233 19.5693 19.6485 19.9755C19.2938 20.0162 19.0392 20.3368 19.08 20.6916C19.0984 20.8513 19.1755 20.9985 19.2966 21.1044C19.7418 21.5241 20.04 22.0761 20.1468 22.6786C20.2569 23.104 20.3082 23.5424 20.2994 23.9816V27.1579C20.2856 28.0308 20.2856 28.6854 20.2856 28.9856C20.286 29.3422 20.5756 29.631 20.9323 29.6305C21.2882 29.63 21.5767 29.3415 21.5772 28.9856C21.5772 28.6879 21.5772 28.0408 21.591 27.1679V23.9816C21.6012 23.4347 21.5362 22.8889 21.3981 22.3595C21.3009 21.9193 21.1413 21.4954 20.9238 21.1006C24.293 20.5292 28.1944 18.8541 28.6297 12.8536C28.6724 12.4463 28.6922 12.037 28.689 11.6275C28.7184 9.85639 28.1291 8.13048 27.0226 6.74721Z" fill="black"/>
</svg>
