<svg width="28" height="27" viewBox="0 0 28 27" fill="none" xmlns="http://www.w3.org/2000/svg">
<path d="M6.73804 9.45568C6.73771 9.45568 6.73745 9.45568 6.7372 9.45568H1.25003C0.871413 9.45543 0.564384 9.75724 0.564133 10.1296C0.564133 10.13 0.564133 10.1302 0.564133 10.1305V26.3252C0.563881 26.6977 0.870659 26.9998 1.24919 27C1.24953 27 1.24978 27 1.25003 27H6.7372C7.11582 27.0002 7.42285 26.6984 7.4231 26.326C7.4231 26.3257 7.4231 26.3255 7.4231 26.3252V10.1305C7.42335 9.75798 7.11657 9.45593 6.73804 9.45568ZM6.05131 25.6504H1.93593V10.8052H6.05131V25.6504ZM21.141 9.45568C19.6529 9.45576 18.2063 9.93895 17.0257 10.8303V10.1305C17.0259 9.75798 16.7191 9.45593 16.3406 9.45568C16.3403 9.45568 16.34 9.45568 16.3398 9.45568H10.8526C10.474 9.45543 10.1669 9.75724 10.1667 10.1296C10.1667 10.13 10.1667 10.1302 10.1667 10.1305V26.3252C10.1664 26.6977 10.4732 26.9998 10.8518 27C10.8521 27 10.8523 27 10.8526 27H16.3398C16.7184 27.0002 17.0254 26.6984 17.0257 26.326C17.0257 26.3257 17.0257 26.3255 17.0257 26.3252V18.9026C17.0257 17.7846 17.9469 16.8783 19.0833 16.8783C20.2198 16.8783 21.141 17.7846 21.141 18.9026V26.3252C21.1408 26.6977 21.4476 26.9998 21.8262 27C21.8264 27 21.8267 27 21.8269 27H27.3141C27.6927 27.0002 27.9998 26.6984 28 26.326C28 26.3257 28 26.3255 28 26.3252V16.2035C27.9956 12.4786 24.9273 9.46005 21.141 9.45568ZM26.6282 25.6504H22.5128V18.9026C22.5128 17.0392 20.9774 15.5287 19.0833 15.5287C17.1893 15.5287 15.6539 17.0392 15.6539 18.9026V25.6504H11.5385V10.8052H15.6539V12.4289C15.6539 12.7157 15.8382 12.971 16.1134 13.0655C16.388 13.1629 16.6951 13.0763 16.8757 12.8507C18.7448 10.5202 22.1803 10.1218 24.5492 11.9607C25.8686 12.9851 26.6355 14.5499 26.6282 16.2035V25.6504ZM4.49841 0.0112105C4.33707 9.03872e-05 4.17514 -0.00073319 4.01371 0.00873939C1.94329 -0.130385 0.150267 1.40805 0.00885092 3.44492C0.00315743 3.52688 0.00031074 3.60892 0.000143244 3.69104C-0.0176908 5.71061 1.63199 7.36198 3.68483 7.37953C3.76864 7.38027 3.85237 7.37812 3.93601 7.37326H3.97486C6.04134 7.51552 7.8337 5.98276 7.9783 3.94977C8.1229 1.91678 6.56489 0.153465 4.49841 0.0112105ZM4.45102 6.02757C4.29261 6.04191 4.13302 6.04067 3.97486 6.0237H3.93601C2.62442 6.12288 1.47953 5.15733 1.37872 3.86699C1.27791 2.57673 2.25937 1.45031 3.57096 1.35114C3.71849 1.34002 3.86668 1.3424 4.01371 1.3583C5.3243 1.23952 6.48468 2.18844 6.6055 3.47779C6.72623 4.76722 5.76169 5.90879 4.45102 6.02757Z" fill="black"/>
</svg>
