<?xml version="1.0" encoding="UTF-8"?>
<svg id="Layer_2" data-name="Layer 2" xmlns="http://www.w3.org/2000/svg" viewBox="0 0 604.13 785.2">
  <defs>
    <style>
      .cls-1 {
        fill: #000;
        stroke-width: 0px;
      }
    </style>
  </defs>
  <g id="Layer_1-2" data-name="Layer 1">
    <g>
      <path class="cls-1" d="M0,.04v530.29l139.35-172.93v427.75c46.39.02,92.78.04,139.17.06V117.27c-46.39,43.33-92.78,86.66-139.17,130-.12-82.42-.25-164.85-.37-247.27C92.65.01,46.33.02,0,.04Z"/>
      <path class="cls-1" d="M325.62.04v530.29l139.35-172.93v427.75c46.39.02,92.78.04,139.17.06V117.27c-46.39,43.33-92.78,86.66-139.17,130-.12-82.42-.25-164.85-.37-247.27-46.33.01-92.65.02-138.98.04Z"/>
    </g>
  </g>
</svg>