<svg width="70" height="14" viewBox="0 0 70 14" fill="none" xmlns="http://www.w3.org/2000/svg">
<path d="M10.225 11.0078C10.0492 12.0625 9.49259 12.9121 8.58439 13.4102C7.85197 13.8203 7.00236 13.9668 6.12345 13.9668C4.30704 13.9668 2.43204 13.293 1.49454 12.9121C1.02579 12.7363 0.791419 12.1797 0.996497 11.7109C1.20158 11.2129 1.72892 10.9785 2.22697 11.1836C4.48283 12.1211 6.6215 12.3262 7.67618 11.7695C8.08634 11.5352 8.29142 11.1836 8.37931 10.6855C8.61368 9.42578 7.85197 9.01562 5.36173 8.2832C3.28165 7.69727 0.439856 6.87695 0.996497 3.80078C1.14298 2.86328 1.67033 2.04297 2.49064 1.54492C3.809 0.666016 5.85978 0.607422 8.52579 1.31055C9.02384 1.45703 9.31681 1.95508 9.19962 2.45312C9.05314 2.95117 8.55509 3.24414 8.05704 3.12695C5.39103 2.42383 4.10197 2.7168 3.48673 3.09766C3.13517 3.36133 2.90079 3.68359 2.8422 4.09375C2.60783 5.35352 3.36954 5.76367 5.85978 6.49609C7.93986 7.08203 10.7817 7.90234 10.225 11.0078Z" fill="black"/>
<path d="M17.8129 0.841797C14.1801 0.841797 11.2504 3.77148 11.2504 7.4043C11.2504 11.0078 14.1801 13.9668 17.8129 13.9668C21.4164 13.9668 24.3754 11.0078 24.3754 7.4043C24.3754 3.77148 21.4164 0.841797 17.8129 0.841797ZM17.8129 12.0625C15.2055 12.0625 13.1254 9.98242 13.1254 7.375C13.1254 4.79688 15.2055 2.7168 17.8129 2.7168C20.391 2.7168 22.5004 4.82617 22.5004 7.375C22.5004 9.95312 20.391 12.0625 17.8129 12.0625Z" fill="black"/>
<path d="M37.5004 1.7793V13.0293C37.5004 13.5273 37.061 13.9668 36.5629 13.9668C36.0356 13.9668 35.6254 13.5273 35.6254 13.0293V4.85547L31.6996 10.7148C31.3481 11.2422 30.4984 11.2422 30.1469 10.7148L26.2504 4.85547V13C26.2504 13.5273 25.8109 13.9375 25.3129 13.9375C24.7856 13.9375 24.3754 13.5273 24.3754 13V1.75C24.3754 1.33984 24.6391 0.988281 25.0199 0.871094C25.4301 0.753906 25.8402 0.900391 26.0746 1.25195L30.9379 8.51758L35.7719 1.25195C36.0063 0.900391 36.4164 0.753906 36.8266 0.871094C37.2074 0.988281 37.5004 1.33984 37.5004 1.7793Z" fill="black"/>
<path d="M44.1801 8.95703C45.7621 8.3418 46.8754 6.81836 46.8754 5.03125C46.8754 2.7168 44.9711 0.8125 42.6567 0.8125H38.4379C37.9106 0.8125 37.5004 1.25195 37.5004 1.75V13C37.5004 13.5273 37.9106 13.9375 38.4379 13.9375C38.936 13.9375 39.3754 13.5273 39.3754 13V9.25H42.1L45.1469 13.5566C45.352 13.8203 45.6449 13.9668 45.9379 13.9668C46.1137 13.9668 46.2895 13.9082 46.4652 13.791C46.8754 13.4688 46.9926 12.8828 46.6996 12.4727L44.1801 8.95703ZM39.3754 2.7168H42.6567C43.9457 2.7168 45.0004 3.74219 45.0004 5.06055C45.0004 6.34961 43.9457 7.375 42.6567 7.375H39.3754V2.7168Z" fill="black"/>
<path d="M58.0375 12.6484L53.35 1.39844C53.2035 1.04688 52.852 0.841797 52.5004 0.841797C52.1195 0.841797 51.768 1.04688 51.6215 1.39844L46.934 12.6484C46.7289 13.1465 46.9633 13.6738 47.432 13.8789C47.9301 14.084 48.4574 13.8496 48.6625 13.3809L49.6 11.1543H55.3715L56.309 13.3809C56.4555 13.7324 56.807 13.9668 57.1879 13.9668C57.3051 13.9668 57.4223 13.9375 57.5395 13.8789C58.0082 13.6738 58.2426 13.1172 58.0375 12.6484ZM50.3617 9.25L52.5004 4.21094L54.6098 9.25H50.3617Z" fill="black"/>
<path d="M62.8129 0.841797H59.0629C58.5356 0.841797 58.1254 1.25195 58.1254 1.7793V13.0293C58.1254 13.5273 58.5356 13.9668 59.0629 13.9668H62.8129C66.4164 13.9668 69.3754 11.0078 69.3754 7.4043C69.3754 3.77148 66.4164 0.841797 62.8129 0.841797ZM62.8129 12.0625H60.0004V2.6875H62.8129C65.391 2.6875 67.5004 4.79688 67.5004 7.375C67.5004 9.92383 65.391 12.0625 62.8129 12.0625Z" fill="black"/>
</svg>
