<svg xmlns="http://www.w3.org/2000/svg" width="493.497" height="725.551" viewBox="0 0 493.497 725.551">
  <g id="astronaut" transform="translate(-526.785 -0.002)">
    <path id="Path_4" data-name="Path 4" d="M382.477,223.617c0-6.822,5.361-12.59,12.538-13.495s13.957,3.334,15.862,9.916-1.653,13.476-8.324,16.129v70.673H391.31V236.167a13.632,13.632,0,0,1-8.833-12.55Z" transform="translate(450.261 -210)" fill="#ccc"/>
    <path id="Path_5" data-name="Path 5" d="M623.384,474.016h0a33.14,33.14,0,0,0,23.136-9.29,29.338,29.338,0,0,0,8.962-22.14c-.644-16.044-15.388-29.1-32.867-29.1H534.376L461.763,383.2a8.243,8.243,0,0,0-10.594,3.855l-19.5,41.51a7.409,7.409,0,0,0,4.092,9.98l71.52,29.83a59.821,59.821,0,0,0,22.488,4.61Z" transform="translate(128.243 -121.453)" fill="#ccc"/>
    <path id="Path_6" data-name="Path 6" d="M328.455,622.586a7.806,7.806,0,0,0,1.247-.1l47.493-7.636h0a7.283,7.283,0,0,0,4.733-2.844,6.494,6.494,0,0,0,1.144-5.178L345.9,428.2c-2.915-16.063-19.1-26.858-36.148-24.112s-28.507,17.994-25.592,34.056L321.4,617.084A7.081,7.081,0,0,0,328.455,622.586Z" transform="translate(637.076 -110.624)" fill="#ccc"/>
    <ellipse id="Ellipse_4" data-name="Ellipse 4" cx="28.909" cy="27.237" rx="28.909" ry="27.237" transform="translate(962.025 496.311)" fill="#e6e6e6"/>
    <ellipse id="Ellipse_5" data-name="Ellipse 5" cx="107.605" cy="101.381" rx="107.605" ry="101.381" transform="translate(743.084 87.273)" fill="#e6e6e6"/>
    <ellipse id="Ellipse_6" data-name="Ellipse 6" cx="107.605" cy="101.381" rx="107.605" ry="101.381" transform="translate(743.084 87.273)" fill="#e6e6e6"/>
    <ellipse id="Ellipse_7" data-name="Ellipse 7" cx="81.909" cy="77.17" rx="81.909" ry="77.17" transform="translate(768.78 111.484)" fill="#b283b2"/>
    <path id="Path_8" data-name="Path 8" d="M408.24,361.237c0-38.1-29.511-70.5-69.485-76.287,31.94-5.084,64.058,8.046,81.937,33.5a73.442,73.442,0,0,1,.71,84.148c-17.447,25.713-49.34,39.323-81.361,34.718C379.419,431.01,408.233,398.869,408.24,361.237Z" transform="translate(497.573 -172.095)" opacity="0.2"/>
    <path id="Path_9" data-name="Path 9" d="M348.3,624.446H512.118c14.629-.016,26.483-11.184,26.5-24.967V425.467c-.016-13.782-11.871-24.951-26.5-24.967H487.224v6.809c-.011,9.606-8.274,17.39-18.47,17.4h-77.09c-10.2-.011-18.458-7.8-18.47-17.4V400.5H348.3c-14.629.016-26.483,11.185-26.5,24.967V599.479C321.818,613.261,333.672,624.43,348.3,624.446Z" transform="translate(420.48 -112.246)" fill="#e6e6e6"/>
    <path id="Path_10" data-name="Path 10" d="M361.727,735.026h64.256V665.135L509.9,543.908l-53.81-33.064-83.551,120.7a52.54,52.54,0,0,0-9.442,29Z" transform="translate(385.073 -55.624)" fill="#e6e6e6"/>
    <path id="Path_11" data-name="Path 11" d="M344.478,749.538h62.636V572.5H344.478Z" transform="translate(515.562 -23.985)" fill="#e6e6e6"/>
    <path id="Path_12" data-name="Path 12" d="M351.453,608.644h138.12c7.536-.008,13.643-5.762,13.651-12.862V547.362c-.008-7.1-6.115-12.854-13.651-12.862H351.453c-7.536.008-13.643,5.762-13.651,12.862v48.421c.008,7.1,6.115,12.854,13.651,12.862Z" transform="translate(430.176 -43.485)" fill="#e6e6e6"/>
    <path id="Path_13" data-name="Path 13" d="M439.372,693.407h74.681V646.5H439.372c-13.749,0-24.894,10.5-24.894,23.454s11.145,23.454,24.894,23.454Z" transform="translate(296.2 13.988)" fill="#ccc"/>
    <path id="Path_14" data-name="Path 14" d="M369.372,705.408h74.681V658.5H369.372c-13.748,0-24.894,10.5-24.894,23.454s11.145,23.454,24.894,23.454Z" transform="translate(478.623 20.145)" fill="#ccc"/>
    <path id="Path_15" data-name="Path 15" d="M403.1,455.092h59.424a5.305,5.305,0,1,0,0-10.592H403.1a5.305,5.305,0,1,0,0,10.592Z" transform="translate(369.411 -89.668)" fill="#fff"/>
    <ellipse id="Ellipse_8" data-name="Ellipse 8" cx="28.909" cy="27.237" rx="28.909" ry="27.237" transform="translate(526.785 251.182)" fill="#e6e6e6"/>
    <path id="Path_16" data-name="Path 16" d="M403.1,467.592h59.424a5.305,5.305,0,1,0,0-10.592H403.1a5.305,5.305,0,1,0,0,10.592Z" transform="translate(369.411 -83.254)" fill="#fff"/>
  </g>
</svg>
