<svg xmlns="http://www.w3.org/2000/svg" width="430.422" height="237.065" viewBox="0 0 430.422 237.065">
  <g id="planet" transform="translate(566.561 -482.512)">
    <path id="Path_1" data-name="Path 1" d="M866.189,547.034c120.679,0,215.211-20.6,215.211-46.908,0-15.77-33.5-29.84-91.9-38.6a1.6,1.6,0,0,0-1.839,1.256A1.527,1.527,0,0,0,989,464.513c55.015,8.254,89.191,21.9,89.191,35.614,0,23.786-97.083,43.881-212,43.881s-212-20.095-212-43.881c0-13.771,34.394-27.45,89.762-35.7a1.527,1.527,0,0,0,1.336-1.731,1.6,1.6,0,0,0-1.837-1.258c-58.767,8.756-92.472,22.858-92.472,38.689C650.978,526.43,745.51,547.034,866.189,547.034Z" transform="translate(-1217.539 105.964)" fill="#ccc"/>
    <path id="Path_2" data-name="Path 2" d="M932.346,524.011c-22.221,35.85-63.014,57.848-107.078,57.744S740.529,559.458,718.5,523.5a2065.8,2065.8,0,0,0,213.846.508Z" transform="translate(-1176.927 137.822)" fill="#e6e6e6"/>
    <path id="Path_3" data-name="Path 3" d="M712.723,552.469c-14.435-47.688,4.752-98.759,47.816-127.273s100.565-28.221,143.3.73,61.334,80.214,46.353,127.752A974.994,974.994,0,0,1,712.723,552.469Z" transform="translate(-1183.092 78.502)" fill="#e6e6e6"/>
    <ellipse id="Ellipse_9" data-name="Ellipse 9" cx="14.454" cy="13.618" rx="14.454" ry="13.618" transform="translate(-391.501 527.407)" fill="#fff"/>
    <ellipse id="Ellipse_10" data-name="Ellipse 10" cx="14.454" cy="13.618" rx="14.454" ry="13.618" transform="translate(-365.804 677.208)" fill="#fff"/>
    <ellipse id="Ellipse_11" data-name="Ellipse 11" cx="24.091" cy="22.697" rx="24.091" ry="22.697" transform="translate(-328.865 565.235)" fill="#fff"/>
  </g>
</svg>
