<?xml version="1.0" encoding="utf-8"?>
<!-- Generator: Adobe Illustrator 27.0.0, SVG Export Plug-In . SVG Version: 6.00 Build 0)  -->
<svg version="1.1" id="Layer_1" xmlns="http://www.w3.org/2000/svg" xmlns:xlink="http://www.w3.org/1999/xlink" x="0px" y="0px"
	 viewBox="0 0 638 480" style="enable-background:new 0 0 638 480;" xml:space="preserve">
<style type="text/css">
	.st0{fill:#CCCCCC;}
	.st1{fill:#E6E6E6;}
	.st2{fill:#B283B2;}
	.st3{opacity:0.2;enable-background:new    ;}
	.st4{fill:#FFFFFF;}
</style>
<path class="st0" d="M0,277c0-10.5,21-19.8,57.6-25.6c0.5-0.1,1.1,0.3,1.1,0.8c0.1,0.5-0.3,1.1-0.8,1.1C23.4,258.9,2,267.9,2,277
	c0,15.7,60.4,29,132,29s132-13.3,132-29c0-9.1-21.3-18.1-55.5-23.5l0,0c-0.5-0.1-0.9-0.6-0.8-1.1s0.6-0.9,1.1-0.8
	c36.4,5.8,57.2,15.1,57.2,25.5c0,17.4-58.9,31-134,31S0,294.4,0,277z"/>
<path class="st1" d="M67.3,313.5c6.7,11.6,16.3,21.2,27.9,28c36.7,21.4,83.9,9.1,105.3-27.7C156.1,316.2,111.7,316.1,67.3,313.5z"/>
<path class="st1" d="M207.8,292.9c4.2-14,4.2-29,0.2-43c-11.7-40.9-54.3-64.6-95.2-52.9C72,208.6,48.3,251.2,60,292.1
	C109,298.8,158.7,299.1,207.8,292.9z"/>
<path class="st0" d="M524,17.3V64h7V17.3c3.3-1.4,5.5-4.7,5.5-8.3c0-5-4-9-9-9s-9,4-9,9C518.5,12.6,520.7,15.9,524,17.3z"/>
<path class="st0" d="M409.7,232.3c-4.8-0.1-9.6-1.1-14-3l-44.5-19.7c-2.5-1.1-3.7-4.1-2.5-6.6l12.1-27.4c1.1-2.5,4.1-3.7,6.6-2.5
	l45.2,20h54.9c10.9,0,20.1,8.6,20.5,19.2c0,0.2,0,0.5,0,0.7c0,11.1-8.9,20-20,20l0,0L409.7,232.3z"/>
<path class="st0" d="M596.8,334.7l-23.2-118.3c-1.8-10.6,5.3-20.7,15.9-22.5c10.6-1.8,20.7,5.3,22.5,15.9l23.1,118.1v0.1
	c0.4,2.4-1.2,4.8-3.7,5.2l0,0l-29.6,5c-0.3,0-0.5,0.1-0.8,0.1C599,338.3,597.2,336.8,596.8,334.7z"/>
<circle class="st1" cx="617" cy="346" r="18"/>
<circle class="st1" cx="529.7" cy="124.7" r="67"/>
<circle class="st1" cx="529.7" cy="124.7" r="67"/>
<circle class="st2" cx="529.7" cy="124.7" r="51"/>
<path class="st3" d="M521.5,175.3c5.4,0.8,10.8,0.8,16.2-0.1c27.8-4.7,46.5-31,41.8-58.8s-31-46.5-58.8-41.8
	C545.6,78.4,564,99.8,564,125C564,149.9,546.1,171.1,521.5,175.3z"/>
<path class="st1" d="M462.2,322V207c0-9.1,7.4-16.5,16.5-16.5h15.5v4.5c0,6.3,5.2,11.5,11.5,11.5h48c6.3,0,11.5-5.2,11.5-11.5v-4.5
	h15.5c9.1,0,16.5,7.4,16.5,16.5v115c0,9.1-7.4,16.5-16.5,16.5h-102C469.6,338.5,462.2,331.1,462.2,322z"/>
<path class="st1" d="M465.8,399.8c0.1-6.8,2.2-13.5,5.9-19.2l52-79.8l33.5,21.9L505,402.8V449h-40L465.8,399.8z"/>
<path class="st1" d="M535.5,362.5h39v117h-39V362.5z"/>
<path class="st1" d="M478.2,365v-32c0-4.7,3.8-8.5,8.5-8.5h86c4.7,0,8.5,3.8,8.5,8.5v32c0,4.7-3.8,8.5-8.5,8.5h-86
	C482,373.5,478.2,369.7,478.2,365z"/>
<path class="st0" d="M442.5,452c0-8.6,6.9-15.5,15.5-15.5h46.5v31H458C449.4,467.5,442.5,460.6,442.5,452z"/>
<path class="st0" d="M512.5,464c0-8.6,6.9-15.5,15.5-15.5h46.5v31H528C519.4,479.5,512.5,472.6,512.5,464z"/>
<path class="st4" d="M477.5,238c0-1.9,1.6-3.5,3.5-3.5h37c1.9,0,3.5,1.6,3.5,3.5s-1.6,3.5-3.5,3.5h-37
	C479.1,241.5,477.5,239.9,477.5,238z"/>
<path class="st4" d="M477.5,250.5c0-1.9,1.6-3.5,3.5-3.5h37c1.9,0,3.5,1.6,3.5,3.5s-1.6,3.5-3.5,3.5h-37
	C479.1,254,477.5,252.4,477.5,250.5z"/>
<circle class="st1" cx="346" cy="184" r="18"/>
<circle class="st4" cx="118" cy="234" r="9"/>
<circle class="st4" cx="134" cy="333" r="9"/>
<circle class="st4" cx="163" cy="265" r="15"/>
</svg>
